#tb 0: 1/90000
#media_type 0: video
#codec_id 0: rawvideo
#dimensions 0: 1920x1080
#sar 0: 0/1
0,       6072,       6072,        0,  8294400, 0x00000000
0,       6072,       6072,        0,  8294400, 0xa87c518f
0,      36101,      36101,        0,  8294400, 0xa87c518f
